<svg width="380" height="340" viewBox="0 0 380 340" role="img" style="" xmlns="http://www.w3.org/2000/svg">
<title style="fill:rgb(0, 0, 0);stroke:none;color:rgb(11, 11, 11);stroke-width:1px;stroke-linecap:butt;stroke-linejoin:miter;opacity:1;font-family:&quot;Anthropic Sans&quot;, -apple-system, BlinkMacSystemFont, &quot;Segoe UI&quot;, sans-serif;font-size:16px;font-weight:400;text-anchor:start;dominant-baseline:auto">Felova logo, rockpool theme</title>
<desc style="fill:rgb(0, 0, 0);stroke:none;color:rgb(11, 11, 11);stroke-width:1px;stroke-linecap:butt;stroke-linejoin:miter;opacity:1;font-family:&quot;Anthropic Sans&quot;, -apple-system, BlinkMacSystemFont, &quot;Segoe UI&quot;, sans-serif;font-size:16px;font-weight:400;text-anchor:start;dominant-baseline:auto">A teal water-droplet mark with a paw print inside, surrounded by small bubbles, above the italic serif wordmark felova and a small tagline.</desc>


<circle cx="97" cy="58" r="5" fill="#149081" style="fill:rgb(20, 144, 129);stroke:none;color:rgb(11, 11, 11);stroke-width:1px;stroke-linecap:butt;stroke-linejoin:miter;opacity:1;font-family:&quot;Anthropic Sans&quot;, -apple-system, BlinkMacSystemFont, &quot;Segoe UI&quot;, sans-serif;font-size:16px;font-weight:400;text-anchor:start;dominant-baseline:auto"/>
<circle cx="70" cy="100" r="4" fill="#149081" style="fill:rgb(20, 144, 129);stroke:none;color:rgb(11, 11, 11);stroke-width:1px;stroke-linecap:butt;stroke-linejoin:miter;opacity:1;font-family:&quot;Anthropic Sans&quot;, -apple-system, BlinkMacSystemFont, &quot;Segoe UI&quot;, sans-serif;font-size:16px;font-weight:400;text-anchor:start;dominant-baseline:auto"/>
<circle cx="60" cy="210" r="9" fill="#DFF4EE" stroke="#BFE6DC" stroke-width="1" style="fill:rgb(223, 244, 238);stroke:rgb(191, 230, 220);color:rgb(11, 11, 11);stroke-width:1px;stroke-linecap:butt;stroke-linejoin:miter;opacity:1;font-family:&quot;Anthropic Sans&quot;, -apple-system, BlinkMacSystemFont, &quot;Segoe UI&quot;, sans-serif;font-size:16px;font-weight:400;text-anchor:start;dominant-baseline:auto"/>
<circle cx="312" cy="95" r="15" fill="none" stroke="#8FD6C4" stroke-width="1.5" style="fill:none;stroke:rgb(143, 214, 196);color:rgb(11, 11, 11);stroke-width:1.5px;stroke-linecap:butt;stroke-linejoin:miter;opacity:1;font-family:&quot;Anthropic Sans&quot;, -apple-system, BlinkMacSystemFont, &quot;Segoe UI&quot;, sans-serif;font-size:16px;font-weight:400;text-anchor:start;dominant-baseline:auto"/>
<circle cx="322" cy="195" r="7" fill="#C8ECE1" style="fill:rgb(200, 236, 225);stroke:none;color:rgb(11, 11, 11);stroke-width:1px;stroke-linecap:butt;stroke-linejoin:miter;opacity:1;font-family:&quot;Anthropic Sans&quot;, -apple-system, BlinkMacSystemFont, &quot;Segoe UI&quot;, sans-serif;font-size:16px;font-weight:400;text-anchor:start;dominant-baseline:auto"/>
<circle cx="300" cy="235" r="6" fill="#3AAF97" style="fill:rgb(58, 175, 151);stroke:none;color:rgb(11, 11, 11);stroke-width:1px;stroke-linecap:butt;stroke-linejoin:miter;opacity:1;font-family:&quot;Anthropic Sans&quot;, -apple-system, BlinkMacSystemFont, &quot;Segoe UI&quot;, sans-serif;font-size:16px;font-weight:400;text-anchor:start;dominant-baseline:auto"/>

<circle cx="190" cy="158" r="105" fill="#DFF4EE" stroke="#BFE6DC" stroke-width="1.5" style="fill:rgb(223, 244, 238);stroke:rgb(191, 230, 220);color:rgb(11, 11, 11);stroke-width:1.5px;stroke-linecap:butt;stroke-linejoin:miter;opacity:1;font-family:&quot;Anthropic Sans&quot;, -apple-system, BlinkMacSystemFont, &quot;Segoe UI&quot;, sans-serif;font-size:16px;font-weight:400;text-anchor:start;dominant-baseline:auto"/>

<path d="M190,75 C217,112 238,140 238,163 C238,190 217,211 190,211 C163,211 142,190 142,163 C142,140 163,112 190,75 Z" fill="#149081" style="fill:rgb(20, 144, 129);stroke:none;color:rgb(11, 11, 11);stroke-width:1px;stroke-linecap:butt;stroke-linejoin:miter;opacity:1;font-family:&quot;Anthropic Sans&quot;, -apple-system, BlinkMacSystemFont, &quot;Segoe UI&quot;, sans-serif;font-size:16px;font-weight:400;text-anchor:start;dominant-baseline:auto"/>
<ellipse cx="175" cy="135" rx="14" ry="20" fill="#3AAF97" style="fill:rgb(58, 175, 151);stroke:none;color:rgb(11, 11, 11);stroke-width:1px;stroke-linecap:butt;stroke-linejoin:miter;opacity:1;font-family:&quot;Anthropic Sans&quot;, -apple-system, BlinkMacSystemFont, &quot;Segoe UI&quot;, sans-serif;font-size:16px;font-weight:400;text-anchor:start;dominant-baseline:auto"/>

<ellipse cx="190" cy="178" rx="19" ry="14" fill="#DFF4EE" style="fill:rgb(223, 244, 238);stroke:none;color:rgb(11, 11, 11);stroke-width:1px;stroke-linecap:butt;stroke-linejoin:miter;opacity:1;font-family:&quot;Anthropic Sans&quot;, -apple-system, BlinkMacSystemFont, &quot;Segoe UI&quot;, sans-serif;font-size:16px;font-weight:400;text-anchor:start;dominant-baseline:auto"/>
<circle cx="173" cy="157" r="7" fill="#DFF4EE" style="fill:rgb(223, 244, 238);stroke:none;color:rgb(11, 11, 11);stroke-width:1px;stroke-linecap:butt;stroke-linejoin:miter;opacity:1;font-family:&quot;Anthropic Sans&quot;, -apple-system, BlinkMacSystemFont, &quot;Segoe UI&quot;, sans-serif;font-size:16px;font-weight:400;text-anchor:start;dominant-baseline:auto"/>
<circle cx="190" cy="150" r="7.5" fill="#DFF4EE" style="fill:rgb(223, 244, 238);stroke:none;color:rgb(11, 11, 11);stroke-width:1px;stroke-linecap:butt;stroke-linejoin:miter;opacity:1;font-family:&quot;Anthropic Sans&quot;, -apple-system, BlinkMacSystemFont, &quot;Segoe UI&quot;, sans-serif;font-size:16px;font-weight:400;text-anchor:start;dominant-baseline:auto"/>
<circle cx="207" cy="157" r="7" fill="#DFF4EE" style="fill:rgb(223, 244, 238);stroke:none;color:rgb(11, 11, 11);stroke-width:1px;stroke-linecap:butt;stroke-linejoin:miter;opacity:1;font-family:&quot;Anthropic Sans&quot;, -apple-system, BlinkMacSystemFont, &quot;Segoe UI&quot;, sans-serif;font-size:16px;font-weight:400;text-anchor:start;dominant-baseline:auto"/>

<path d="M135.94254647827148 272.14776400756836 136.74698144531249 269.9580408935547 142.24130859375 269.96730111694336Q142.84007998657225 269.96730111694336 143.16261624145505 270.1429442443848Q143.4851524963379 270.3185873718262 143.4851524963379 270.7787565307617Q143.4851524963379 271.1533439025879 143.20652702331543 271.46901026916504Q142.92790155029297 271.7846766357422 142.44346194458006 271.96622032165527Q141.9590223388672 272.14776400756836 141.31618960571288 272.14776400756836ZM129.6382695007324 270.8110167541504Q129.6382695007324 270.4249293823242 129.94340519714353 270.17759480285645Q130.2485408935547 269.9302602233887 130.86807250976562 269.9302602233887H133.57638848876954L134.74293307495117 265.2497026672363Q135.69041262817382 261.2600688171387 137.844140335083 259.1608485412598Q139.99786804199218 257.0616282653809 143.57500747680663 257.0616282653809Q145.6201060180664 257.0616282653809 146.6195047302246 257.8903150787354Q147.61890344238282 258.71900189208986 147.61890344238282 259.82541082763674Q147.61890344238282 260.9803606567383 146.92688020324707 261.6958355712891Q146.23485696411132 262.41131048583986 145.08813204956056 262.41131048583986Q144.3425707092285 262.41131048583986 143.71394802856446 262.0786292572021Q143.08532534790038 261.74594802856444 142.52204188537598 261.3201469116211Q141.95875842285156 260.89434579467775 141.40570451354978 260.56166456604Q140.85265060424803 260.2289833374023 140.2419461364746 260.2289833374023Q139.2498030090332 260.2289833374023 138.56458367919922 260.9233123321533Q137.87936434936523 261.6176413269043 137.63308367919922 262.72194244384764Q137.47656323242188 263.4876617736816 137.6899814453125 264.40400099182125Q137.9033996582031 265.32034020996093 138.23069798278806 266.3079192047119Q138.55799630737303 267.2954981994629 138.732434967041 268.2934573059082Q138.90687362670897 269.2914164123535 138.65163385009765 270.22261529541015L132.9121357421875 291.4048642578125Q132.73291641235352 292.10352224731446 132.64218685913085 292.6451421356201Q132.5514573059082 293.1867620239258 132.5514573059082 293.6192824707031Q132.5514573059082 294.2246040344238 132.85441920471192 294.6032852630615Q133.15738110351563 294.9819664916992 133.46034300231935 295.3127090606689Q133.76330490112304 295.64345162963866 133.76330490112304 296.1279572143555Q133.76330490112304 296.797065032959 133.01505210876462 297.41000927734376Q132.26679931640624 298.02295352172854 131.0801255187988 298.40865519714356Q129.8934517211914 298.7943568725586 128.56556881713865 298.7943568725586Q127.0802621154785 298.7943568725586 126.65960876464842 297.75180017089843Q126.23895541381836 296.7092434692383 126.84233831787108 294.5770947570801L132.477 274.62534579467774Q132.861280670166 273.2680446777344 132.52823234558105 272.6660827789307Q132.1951840209961 272.06412088012695 130.74066915893553 271.87921752929685Q130.0703568725586 271.6106710510254 129.8543131866455 271.3518364715576Q129.6382695007324 271.09300189208983 129.6382695007324 270.8110167541504Z M145.89977697753906 280.4444033508301Q145.89977697753906 280.4444033508301 146.7448764190674 280.13853346252444Q147.5899758605957 279.83266357421877 148.9469758605957 279.3485436859131Q150.3039758605957 278.8644237976074 151.85692753601074 278.3018931274414Q153.4098792114258 277.7393624572754 154.8693439025879 277.2132704467773Q156.32880859375 276.6871784362793 157.3569573059082 276.31125463867187L156.78135507202148 277.02606134033203Q156.9858141784668 276.4162602233887 157.10514317321775 275.5965511169434Q157.22447216796874 274.77684201049806 157.23597216796875 273.67598513793945Q157.2382119445801 272.1723271484375 156.64535971069336 271.2227583770752Q156.05250747680665 270.2731896057129 155.04886434936523 270.2731896057129Q154.0413439025879 270.2731896057129 152.9932723388672 271.0334600524902Q151.94520077514647 271.79373049926755 151.02489965820314 273.16782994079585Q150.10459854125978 274.5419293823242 149.46074909973146 276.40768681335453Q148.81689965820314 278.2734442443848 148.62006323242187 280.48665798950196Q148.32928814697266 283.88273419189454 149.5592704925537 285.6204200592041Q150.78925283813476 287.35810592651364 153.18065060424806 287.35810592651364Q154.54945172119142 287.35810592651364 155.8080335083008 286.8338865966797Q157.06661529541017 286.3096672668457 158.09601585388185 285.30193028259276Q159.12541641235353 284.29419329833985 159.77777328491212 282.8447602233887Q160.1175595397949 282.3641319580078 160.3706441192627 282.19087916564945Q160.62372869873047 282.017626373291 160.9264740600586 282.03136614990234Q161.28478076171876 282.04286614990235 161.48835511779788 282.35472117614745Q161.69192947387697 282.6665762023926 161.52106701660156 283.3461487121582Q161.05033840942383 285.2498977661133 159.65801963806155 286.88386709594727Q158.26570086669923 288.51783642578124 156.01870271301271 289.506469329834Q153.77170455932617 290.4951022338867 150.6941469116211 290.4951022338867Q147.96727328491212 290.4951022338867 146.19222680664063 289.46794145202637Q144.41718032836914 288.440780670166 143.63666731262208 286.5181914520264Q142.856154296875 284.5956022338867 143.07599072265626 281.90326580810546Q143.2983680419922 279.18104089355467 144.39930949401855 276.76707620239256Q145.50025094604493 274.35311151123045 147.27021563720703 272.5005576019287Q149.04018032836913 270.64800369262696 151.28000747680665 269.59052134704586Q153.51983462524416 268.53303900146483 156.00848333740234 268.53303900146483Q157.91808557128905 268.53303900146483 159.1859275817871 269.2666486663818Q160.45376959228517 270.0002583312988 161.1156218261719 271.2273986663819Q161.7774740600586 272.45453900146487 161.87037741088866 273.9594014587402Q161.90517852783205 274.31650369262695 162.0663290863037 274.5563661499024Q162.2274796447754 274.79622860717774 162.53991830444338 274.81250927734374Q162.83758187866212 274.8195297241211 162.98768411254883 274.95701206970216Q163.13778634643555 275.0944944152832 163.14002612304688 275.3579591064453Q163.14450567626955 275.68624536132813 162.8658802032471 275.9752509460449Q162.58725473022463 276.2642565307617 161.8032788696289 276.5232416687012Q160.96942568969726 276.7982063598633 159.50024909973143 277.2979387054444Q158.03107250976564 277.7976710510254 156.25835038757324 278.40620172119145Q154.48562826538085 279.0147323913574 152.69416915893555 279.6311022796631Q150.90271005249025 280.24747216796874 149.40256228637696 280.7578011627197Q147.90241452026368 281.2681301574707 146.99100653076172 281.5853494873047Q146.07959854125977 281.9025688171387 146.07959854125977 281.9025688171387Z M180.3233606567383 256.87284759521486Q182.2721116027832 256.87284759521486 183.19585696411133 257.654263961792Q184.11960232543947 258.43568032836913 184.11960232543947 259.5120688171387Q184.11960232543947 260.52647775268554 183.50904841613772 261.167353225708Q182.89849450683596 261.8082286987305 181.71158557128908 261.8082286987305Q180.98842199707033 261.8082286987305 180.43687367248538 261.5493281402588Q179.8853253479004 261.2904275817871 179.39859858703613 260.94527702331544Q178.91187182617188 260.60012646484375 178.4074433898926 260.3412259063721Q177.9030149536133 260.0823253479004 177.27409115600588 260.0823253479004Q176.64516735839845 260.0823253479004 176.1248253479004 260.43419523620605Q175.60448333740237 260.7860651245117 175.28681233215335 261.36584579467774Q174.96914132690432 261.94562646484377 174.91357998657227 262.6432491455078Q174.89505953979494 263.19076959228516 175.07733741760256 263.73157070922855Q175.25961529541016 264.2723718261719 175.50723239135743 264.8521524963379Q175.7548494873047 265.4319331665039 175.95198703002933 266.10102238464356Q176.14912457275392 266.77011160278323 176.15905300903322 267.5813792572022Q176.1689814453125 268.3926469116211 175.87028256225588 269.3916413269043L171.52362088012697 283.60756314086916Q170.89784020996095 285.6845835876465 171.0797509918213 286.39198414611815Q171.26166177368165 287.09938470458985 171.98004467773438 287.09938470458985Q172.58566735839844 287.09938470458985 173.2553588104248 286.73168582153323Q173.92505026245118 286.36398693847656 174.5812844543457 285.57961520385743Q174.8744684753418 285.28673229980467 175.07550193786622 285.21183174133296Q175.27653540039063 285.1369311828613 175.48443875122072 285.21549252319335Q175.75014321899414 285.3103345336914 175.79420455932618 285.6429497833252Q175.8382658996582 285.97556503295897 175.58660232543946 286.5066728515625Q175.08150567626956 287.63845352172854 174.0282017669678 288.54068586730955Q172.97489785766604 289.4429182128906 171.56994059753418 289.96901022338864Q170.16498333740236 290.4951022338867 168.57363574218752 290.4951022338867Q167.00722680664063 290.4951022338867 166.24269334411622 289.8593085479736Q165.4781598815918 289.22351486206054 165.43358088684084 287.9484172668457Q165.38900189208985 286.67331967163085 165.96968591308595 284.76354827880857L172.47253161621094 263.4902026672363Q173.53009854125978 260.05584390258787 175.5240966949463 258.46434574890134Q177.5180948486328 256.87284759521486 180.3233606567383 256.87284759521486Z M192.34473797607424 268.5327378845215Q195.27352981567384 268.5924776611328 197.31927796936037 269.9042304534912Q199.3650261230469 271.2159832458496 200.2512789154053 273.60022860717777Q201.13753170776369 275.9844739685059 200.5568476867676 279.2918624572754Q200.1167045593262 281.7837862548828 198.9643802032471 283.86558737182617Q197.81205584716798 285.94738848876955 196.0927212677002 287.4502277069092Q194.37338668823244 288.9530669250488 192.220712890625 289.75186524963374Q190.0680390930176 290.55066357421873 187.61793685913088 290.4951022338867Q184.7645632324219 290.4395408935547 182.72852697753908 289.1492165374756Q180.69249072265626 287.85889218139647 179.8057202758789 285.470986038208Q178.9189498291016 283.0830798950195 179.478873626709 279.778533416748Q179.9372360839844 277.23255386352537 181.08910876464847 275.13970442199707Q182.2409814453125 273.04685498046877 183.95299446105957 271.5440157623291Q185.66500747680666 270.04117654418945 187.79916082763674 269.25245721435545Q189.93331417846682 268.4637378845215 192.34473797607424 268.5327378845215ZM187.63167663574222 288.61634939575197Q188.54719708251955 288.69969140625 189.43702607727053 288.27481224060057Q190.32685507202152 287.8499330749512 191.14992384338382 286.9879879302979Q191.97299261474612 286.12604278564453 192.67897216796877 284.8913169708252Q193.38495172119144 283.65659115600585 193.93501306152348 282.09260975646976Q194.48507440185548 280.5286283569336 194.83127886962893 278.7135670166016Q195.38030490112308 275.99789227294923 195.2232667999268 274.20409020996095Q195.0662286987305 272.4102881469727 194.32835601806642 271.4720502166748Q193.59048333740236 270.53381228637693 192.3623550720215 270.41149072265625Q191.44937551879886 270.3191896057129 190.56910786437993 270.73846932983395Q189.68884020996097 271.15774905395506 188.87070266723634 272.0185743103027Q188.05256512451174 272.87939956665036 187.34688668823244 274.119724822998Q186.64120825195315 275.3600500793457 186.09480769348147 276.9385900268554Q185.5484071350098 278.5171299743652 185.19772311401368 280.35458908081057Q184.64869708251956 283.0789218139648 184.8087937316895 284.87063465881346Q184.9688903808594 286.6623475036621 185.7072807159424 287.5791569976807Q186.4456710510254 288.4959664916992 187.63167663574222 288.61634939575197Z M226.95553918457034 272.69590704345705Q226.95553918457034 275.58003530883786 226.1558375091553 278.2318392181396Q225.35613583374027 280.8836431274414 223.92348248291017 283.1149442443848Q222.4908291320801 285.3462453613281 220.566583770752 287.0078448028564Q218.64233840942387 288.66944424438475 216.37712092590334 289.5869033508301Q214.11190344238284 290.50436245727536 211.66671383666994 290.50436245727536Q209.44420266723637 290.50436245727536 208.18441641235356 289.4266375427246Q206.92463015747074 288.3489126281738 206.96167105102543 286.22632525634765Q206.98945172119144 284.39364682006834 207.7628597106934 282.8372695007324Q208.53626770019534 281.2808921813965 209.70052513122562 279.9430148620605Q210.8647825622559 278.6051375427246 212.12134111022954 277.43004832458496Q213.37789965820315 276.2549591064453 214.40073144531254 275.18358642578124Q215.4235632324219 274.1122137451172 215.8808903808594 273.09362637329104L215.86848703002934 274.00380111694335Q214.59646658325198 274.00380111694335 213.426826248169 273.7177221221924Q212.25718591308598 273.4316431274414 211.18641546630863 273.0605845794678Q210.11564501953129 272.68952603149415 209.13097401428226 272.38970726013184Q208.14630300903323 272.08988848876953 207.25348144531253 272.07166915893555Q206.33468591308596 272.05344982910157 205.82943870544437 272.4783475952148Q205.32419149780276 272.9032453613281 205.2944721679688 273.53066357421875Q205.2375744018555 274.2926375427246 206.2827007751465 274.815219329834Q206.9450520629883 275.135280670166 207.24732714843753 275.4900585479736Q207.54960223388676 275.84483642578124 207.52914312744144 276.3959330749512Q207.50868402099613 277.13283642578125 207.0094033508301 277.5402676544189Q206.5101226806641 277.94769888305666 205.82968402099613 277.94769888305666Q204.7077658081055 277.94769888305666 203.9880464782715 277.0091784362793Q203.26832714843752 276.07065798950197 203.36196469116214 274.3923921813965Q203.44186245727542 272.72816726684573 204.22453067016605 271.4081235809326Q205.00719888305667 270.0880798950195 206.36098977661135 269.32399810791014Q207.71478067016605 268.55991632080077 209.48026580810551 268.55991632080077Q210.4510464782715 268.55991632080077 211.46610502624515 268.7879776611328Q212.48116357421878 269.01603900146483 213.40101301574708 269.2498503417969Q214.3208624572754 269.4836616821289 214.99324536132815 269.4836616821289Q215.6949145202637 269.4836616821289 216.0537388763428 269.25193955993655Q216.41256323242192 269.0202174377441 216.6825966949463 268.7896152038574Q216.95263015747074 268.5590129699707 217.3824777526856 268.57753341674805Q217.79634579467776 268.5867936401367 217.96160881042482 268.89991911315917Q218.1268718261719 269.21304458618164 218.05981048583988 269.85781597900393Q217.8864071350098 270.99140335083007 217.37674635314943 272.3753652496338Q216.8670855712891 273.7593271484375 216.21524635314944 275.31137547302245Q215.5634071350098 276.8634237976074 214.94621847534182 278.4896198883057Q214.32902981567386 280.1158159790039 213.92571104431156 281.7292416229248Q213.52239227294925 283.3426672668457 213.52239227294925 284.8575241394043Q213.52239227294925 286.40300369262695 214.07850473022464 287.1101031341553Q214.63461718750003 287.8172025756836 215.59226031494143 287.8194423522949Q216.75376031494145 287.8216821289063 218.07117852783205 286.8698735809326Q219.38859674072268 285.91806503295896 220.55860417175296 284.3177769317627Q221.72861160278325 282.7174888305664 222.47550936889652 280.7653308410645Q223.2224071350098 278.8131728515625 223.23584579467777 276.81247396850586Q223.24928445434574 275.7401319580078 223.01428724670416 275.0856672668457Q222.77929003906254 274.4312025756836 222.25089227294924 273.85753900146483Q221.67128076171878 273.25027877807617 221.40051310729984 272.7103810119629Q221.12974545288088 272.1704832458496 221.1502045593262 271.45360592651366Q221.16842388916018 270.6477025756836 221.5447147827149 270.0008605651856Q221.92100567626957 269.3540185546875 222.5646385803223 268.9604776611328Q223.20827148437502 268.5669367675781 224.02851684570317 268.5669367675781Q225.39494622802738 268.5669367675781 226.17524270629886 269.58065888977046Q226.95553918457034 270.59438101196287 226.95553918457034 272.69590704345705Z M247.45143875122073 283.8507378845215Q246.96232165527346 285.77778805541993 247.1098829956055 286.48025738525394Q247.25744433593752 287.1827267150879 247.80884210205082 287.1827267150879Q248.2107398681641 287.1827267150879 248.63167573547366 286.921520401001Q249.05261160278323 286.66031408691407 249.69032534790043 286.014845703125Q250.0483309326172 285.68492190551757 250.27714506530765 285.6007611236572Q250.50595919799807 285.5166003417969 250.7231227722168 285.6229423522949Q250.97956701660158 285.745565032959 250.97732723999025 286.0920706176758Q250.97508746337894 286.4385762023926 250.70490344238283 286.9604237976074Q249.82224545288088 288.56788290405274 248.21022221374514 289.5314925689697Q246.5981989746094 290.4951022338867 244.8140614318848 290.4951022338867Q243.3938774108887 290.4951022338867 242.7227649536133 289.79732899475096Q242.0516524963379 289.09955575561526 242.0516524963379 287.78705017089845Q242.0516524963379 287.2689479370117 242.13775193786623 286.62061894226076Q242.22385137939455 285.97228994750975 242.42958093261723 285.06297117614747Q242.63531048583988 284.15365240478513 242.99659115600588 282.8779711761474Q243.3578718261719 281.60228994750975 243.89449450683597 279.8387434692383L244.31223986816408 280.63452044677734Q243.1644796447754 283.7356431274414 241.50413204956055 285.9460334625244Q239.84378445434572 288.15642379760743 237.8565056304932 289.32576301574704Q235.86922680664065 290.4951022338867 233.72454278564456 290.4951022338867Q231.22275653076176 290.4951022338867 229.87254183959965 288.80684201049803Q228.52232714843754 287.11858178710935 228.90152603149417 283.53669888305666Q229.11778625488284 281.26387731933596 230.05182714843752 279.0816347503662Q230.9858680419922 276.8993921813965 232.51597027587894 274.99411894226074Q234.04607250976565 273.088845703125 236.06074630737308 271.6437230224609Q238.0754201049805 270.19860034179686 240.46907624816896 269.38052877807615Q242.86273239135744 268.56245721435545 245.5053606567383 268.56245721435545Q247.57165249633792 268.56245721435545 248.969805847168 268.8572787780762Q250.36795919799806 269.1521003417969 251.0669183044434 269.6351849212647Q251.7658774108887 270.1182695007324 251.71031607055667 270.6956784362793Q251.6640149536133 271.18048513793946 251.37128260803223 271.4356589355469Q251.0785502624512 271.6908327331543 250.76505769348148 271.9471264190674Q250.45156512451175 272.20342010498047 250.31774356079103 272.7064461364746ZM234.39408367919924 283.5047025756836Q234.146466583252 285.8172378845215 234.70772680664066 286.7628447570801Q235.26898703002934 287.70845162963866 236.28158926391603 287.70845162963866Q237.21877328491215 287.70845162963866 238.26901864624028 286.9590789489746Q239.3192640075684 286.2097062683105 240.3819786987305 284.8361244812012Q241.44469338989262 283.4625426940918 242.4065149536133 281.6140352630615Q243.368336517334 279.76552783203124 244.12867294311525 277.54634754943845Q244.88900936889652 275.3271672668457 245.33449819946293 272.8878680419922Q245.5753959655762 271.6110669250488 245.2807909393311 271.0123987121582Q244.98618591308596 270.41373049926756 244.17894613647462 270.41373049926756Q242.8427063598633 270.41373049926756 241.51893591308595 271.1561487121582Q240.19516546630862 271.89856692504884 239.00125468444827 273.2019442443848Q237.80734390258792 274.5053215637207 236.83305300903322 276.18102787780765Q235.85876211547856 277.85673419189453 235.2240223388672 279.73481039428714Q234.58928256225587 281.6128865966797 234.39408367919924 283.5047025756836Z" fill="#0D3A3C"/>
<path d="M88.212 313.144Q87.25800000000001 313.144 86.44800000000001 312.799Q85.638 312.454 85.035 311.83299999999997Q84.432 311.212 84.096 310.37199999999996Q83.76 309.532 83.76 308.53Q83.76 307.528 84.09 306.685Q84.42 305.842 85.017 305.221Q85.614 304.6 86.421 304.25800000000004Q87.22800000000001 303.916 88.188 303.916Q89.13000000000001 303.916 89.88000000000001 304.24Q90.63000000000001 304.564 91.149 305.089Q91.668 305.614 91.89000000000001 306.226L90.63600000000001 306.832Q90.35400000000001 306.1 89.721 305.653Q89.08800000000001 305.206 88.188 305.206Q87.30000000000001 305.206 86.61600000000001 305.626Q85.932 306.046 85.551 306.78999999999996Q85.17 307.534 85.17 308.53Q85.17 309.52 85.56 310.27Q85.95 311.02 86.637 311.437Q87.32400000000001 311.854 88.212 311.854Q88.956 311.854 89.57400000000001 311.54499999999996Q90.19200000000001 311.236 90.561 310.681Q90.93 310.126 90.93 309.382V308.764L91.572 309.34H88.188V308.14H92.34V308.986Q92.34 309.97 92.004 310.744Q91.668 311.518 91.089 312.05499999999995Q90.51 312.592 89.766 312.868Q89.022 313.144 88.212 313.144Z M95.98000000000002 313.0V304.06H101.86600000000001V305.32H97.39000000000001V307.888H101.626V309.148H97.39000000000001V311.74H101.86600000000001V313.0Z M105.39200000000002 313.0V304.06H106.52600000000001L111.54800000000002 310.984L111.00200000000002 311.074V304.06H112.41200000000002V313.0H111.27200000000002L106.29200000000002 306.028L106.80200000000002 305.938V313.0Z M118.03800000000001 313.0V305.32H115.66800000000002V304.06H121.78800000000001V305.32H119.44800000000002V313.0Z M125.04400000000003 313.0V304.06H126.45400000000002V311.74H130.324V313.0Z M133.71200000000002 313.0V304.06H139.598V305.32H135.122V307.888H139.358V309.148H135.122V311.74H139.598V313.0Z M143.34 314.77V314.11Q143.73000000000002 314.014 143.949 313.741Q144.168 313.468 144.21 313.0H143.58V311.44H144.96V312.466Q144.96 313.426 144.55200000000002 314.01099999999997Q144.144 314.596 143.34 314.77Z M155.13800000000003 313.0V305.32H152.76800000000003V304.06H158.88800000000003V305.32H156.54800000000003V313.0Z M162.14400000000003 313.0V304.06H165.39000000000001Q166.29000000000002 304.06 166.97700000000003 304.39300000000003Q167.66400000000002 304.726 168.05100000000002 305.353Q168.43800000000002 305.98 168.43800000000002 306.856Q168.43800000000002 307.786 167.97900000000004 308.443Q167.52000000000004 309.1 166.74000000000004 309.4L168.80400000000003 313.0H167.19600000000003L165.00000000000003 309.1L165.92400000000004 309.64H163.55400000000003V313.0ZM163.55400000000003 308.38H165.42000000000002Q165.90600000000003 308.38 166.26600000000002 308.19100000000003Q166.62600000000003 308.002 166.82700000000003 307.65700000000004Q167.02800000000002 307.312 167.02800000000002 306.85Q167.02800000000002 306.382 166.82700000000003 306.03999999999996Q166.62600000000003 305.698 166.26600000000002 305.509Q165.90600000000003 305.32 165.42000000000002 305.32H163.55400000000003Z M175.54000000000002 313.144Q174.53800000000004 313.144 173.76400000000004 312.724Q172.99000000000004 312.304 172.55500000000004 311.572Q172.12000000000003 310.84 172.12000000000003 309.904V304.06H173.53000000000003V309.844Q173.53000000000003 310.432 173.788 310.88800000000003Q174.04600000000002 311.344 174.49900000000002 311.599Q174.95200000000003 311.854 175.54000000000002 311.854Q176.13400000000001 311.854 176.584 311.599Q177.03400000000002 311.344 177.29200000000003 310.88800000000003Q177.55000000000004 310.432 177.55000000000004 309.844V304.06H178.96000000000004V309.904Q178.96000000000004 310.84 178.52500000000003 311.572Q178.09000000000003 312.304 177.31900000000002 312.724Q176.54800000000003 313.144 175.54000000000002 313.144Z M186.06800000000004 313.144Q185.22200000000004 313.144 184.50500000000005 312.829Q183.78800000000004 312.514 183.28100000000003 311.959Q182.77400000000003 311.404 182.54000000000002 310.69L183.73400000000004 310.186Q184.05800000000002 311.008 184.68500000000003 311.455Q185.31200000000004 311.902 186.12800000000004 311.902Q186.60800000000003 311.902 186.96500000000003 311.749Q187.32200000000003 311.596 187.52000000000004 311.323Q187.71800000000002 311.05 187.71800000000002 310.684Q187.71800000000002 310.198 187.442 309.907Q187.16600000000003 309.616 186.62600000000003 309.454L184.94600000000003 308.926Q183.93800000000002 308.614 183.413 307.969Q182.88800000000003 307.324 182.88800000000003 306.46Q182.88800000000003 305.71 183.25700000000003 305.137Q183.62600000000003 304.564 184.28000000000003 304.24Q184.93400000000003 303.916 185.77400000000003 303.916Q186.57800000000003 303.916 187.24100000000004 304.201Q187.90400000000002 304.486 188.37500000000003 304.978Q188.84600000000003 305.47 189.06800000000004 306.118L187.89200000000002 306.628Q187.62200000000004 305.92 187.06700000000004 305.539Q186.51200000000003 305.158 185.78000000000003 305.158Q185.33600000000004 305.158 184.997 305.308Q184.65800000000002 305.458 184.47200000000004 305.737Q184.28600000000003 306.016 184.28600000000003 306.388Q184.28600000000003 306.82 184.562 307.156Q184.83800000000002 307.492 185.40200000000002 307.666L186.96800000000002 308.152Q188.03600000000003 308.482 188.57300000000004 309.088Q189.11000000000004 309.694 189.11000000000004 310.588Q189.11000000000004 311.338 188.72300000000004 311.914Q188.33600000000004 312.49 187.65200000000004 312.817Q186.96800000000002 313.144 186.06800000000004 313.144Z M194.47800000000004 313.0V305.32H192.10800000000003V304.06H198.22800000000004V305.32H195.88800000000003V313.0Z M201.48400000000004 313.0V304.06H207.37000000000003V305.32H202.89400000000003V307.888H207.13000000000002V309.148H202.89400000000003V311.74H207.37000000000003V313.0Z M210.89600000000004 313.0V304.06H213.82400000000004Q215.21412363636367 304.06 216.24106181818183 304.621Q217.26800000000003 305.182 217.83200000000005 306.187Q218.39600000000004 307.192 218.39600000000004 308.52685462555064Q218.39600000000004 309.85 217.83200000000005 310.861Q217.26800000000003 311.872 216.24106181818183 312.43600000000004Q215.21412363636367 313.0 213.82400000000004 313.0ZM212.30600000000004 311.74H213.84800000000004Q214.79967924528304 311.74 215.49683962264155 311.344Q216.19400000000005 310.948 216.57800000000003 310.22541772151897Q216.96200000000005 309.50283544303795 216.96200000000005 308.521417721519Q216.96200000000005 307.54 216.5752142857143 306.8233495145631Q216.1884285714286 306.1066990291262 215.49221428571434 305.7133495145631Q214.79600000000005 305.32 213.84800000000004 305.32H212.30600000000004Z M226.28800000000004 313.0V304.06H229.54000000000002Q230.44000000000003 304.06 231.127 304.39300000000003Q231.81400000000002 304.726 232.20100000000002 305.353Q232.58800000000002 305.98 232.58800000000002 306.856Q232.58800000000002 307.72 232.19800000000004 308.34400000000005Q231.80800000000002 308.968 231.12400000000002 309.304Q230.44000000000003 309.64 229.54000000000002 309.64H227.69800000000004V313.0ZM227.69800000000004 308.38H229.57000000000002Q230.05600000000004 308.38 230.41600000000005 308.19100000000003Q230.77600000000004 308.002 230.97700000000003 307.65700000000004Q231.17800000000003 307.312 231.17800000000003 306.85Q231.17800000000003 306.382 230.97700000000003 306.03999999999996Q230.77600000000004 305.698 230.41600000000005 305.509Q230.05600000000004 305.32 229.57000000000002 305.32H227.69800000000004Z M236.24000000000004 313.0V304.06H242.12600000000003V305.32H237.65000000000003V307.888H241.88600000000002V309.148H237.65000000000003V311.74H242.12600000000003V313.0Z M247.23000000000005 313.0V305.32H244.86000000000004V304.06H250.98000000000005V305.32H248.64000000000004V313.0Z M262.70000000000005 313.144Q261.74600000000004 313.144 260.939 312.799Q260.132 312.454 259.535 311.83299999999997Q258.93800000000005 311.212 258.605 310.37199999999996Q258.27200000000005 309.532 258.27200000000005 308.53Q258.27200000000005 307.528 258.60200000000003 306.685Q258.932 305.842 259.529 305.221Q260.12600000000003 304.6 260.933 304.25800000000004Q261.74 303.916 262.70000000000005 303.916Q263.642 303.916 264.392 304.24Q265.142 304.564 265.661 305.089Q266.18 305.614 266.40200000000004 306.226L265.13 306.82Q264.848 306.106 264.218 305.656Q263.588 305.206 262.70000000000005 305.206Q261.812 305.206 261.12800000000004 305.626Q260.444 306.046 260.063 306.78999999999996Q259.682 307.534 259.682 308.53Q259.682 309.52 260.063 310.27Q260.444 311.02 261.12800000000004 311.437Q261.812 311.854 262.70000000000005 311.854Q263.588 311.854 264.218 311.407Q264.848 310.96 265.13 310.246L266.40200000000004 310.84Q266.18 311.446 265.661 311.971Q265.142 312.496 264.392 312.82Q263.642 313.144 262.70000000000005 313.144Z M269.26800000000003 313.0 272.41200000000003 304.06H274.16400000000004L277.30800000000005 313.0H275.79L275.10600000000005 310.996H271.47L270.78000000000003 313.0ZM271.884 309.736H274.68L273.09000000000003 305.056H273.48600000000005Z M280.564 313.0V304.06H283.81000000000006Q284.71000000000004 304.06 285.39700000000005 304.39300000000003Q286.08400000000006 304.726 286.47100000000006 305.353Q286.85800000000006 305.98 286.85800000000006 306.856Q286.85800000000006 307.786 286.39900000000006 308.443Q285.94000000000005 309.1 285.16 309.4L287.22400000000005 313.0H285.61600000000004L283.42 309.1L284.34400000000005 309.64H281.97400000000005V313.0ZM281.97400000000005 308.38H283.84000000000003Q284.326 308.38 284.68600000000004 308.19100000000003Q285.04600000000005 308.002 285.24700000000007 307.65700000000004Q285.44800000000004 307.312 285.44800000000004 306.85Q285.44800000000004 306.382 285.24700000000007 306.03999999999996Q285.04600000000005 305.698 284.68600000000004 305.509Q284.326 305.32 283.84000000000003 305.32H281.97400000000005Z M290.612 313.0V304.06H296.49800000000005V305.32H292.02200000000005V307.888H296.25800000000004V309.148H292.02200000000005V311.74H296.49800000000005V313.0Z" fill="#3A6A6B"/>
</svg>